<?xml version="1.0" encoding="utf-8"?>
<!-- Generator: Adobe Illustrator 21.0.2, SVG Export Plug-In . SVG Version: 6.00 Build 0)  -->
<svg version="1.1" id="Layer_1" xmlns="http://www.w3.org/2000/svg" xmlns:xlink="http://www.w3.org/1999/xlink" x="0px" y="0px"
	 viewBox="0 0 50 50" style="enable-background:new 0 0 50 50;" xml:space="preserve">
<style type="text/css">
	.st0{fill:#177577;}
</style>
<g>
	<g>
		<g>
			<path class="st0" d="M4.5,26L9,29.2c0.8,0.6,1.9,0,1.9-1v-1.9h21.6c0.7,0,1.2-0.6,1.2-1.2s-0.6-1.2-1.2-1.2H11v-1.9
				c0-1-1.1-1.6-1.9-1L4.5,24C3.8,24.5,3.8,25.5,4.5,26z"/>
		</g>
	</g>
	<g>
		<g>
			<path class="st0" d="M10.7,17.1c0.6,0.3,1.3,0.1,1.7-0.4c2.9-5,8.3-8.4,14.5-8.4c9.2,0,16.7,7.5,16.7,16.7S36,41.7,26.8,41.7
				c-6.2,0-11.6-3.4-14.5-8.4c-0.3-0.6-1.1-0.8-1.7-0.4c-0.6,0.3-0.8,1.1-0.4,1.7c3.3,5.7,9.5,9.6,16.6,9.6C37.4,44.2,46,35.6,46,25
				c0-10.6-8.6-19.2-19.2-19.2c-7.1,0-13.3,3.8-16.6,9.6C9.9,16,10.1,16.8,10.7,17.1z"/>
		</g>
	</g>
</g>
</svg>
