<?xml version="1.0" encoding="iso-8859-1"?>
<!-- Generator: Adobe Illustrator 19.0.0, SVG Export Plug-In . SVG Version: 6.00 Build 0)  -->
<svg version="1.1" id="Capa_1" xmlns="http://www.w3.org/2000/svg" xmlns:xlink="http://www.w3.org/1999/xlink" x="0px" y="0px"
	 viewBox="0 0 330.99 330.99" style="enable-background:new 0 0 330.99 330.99;" xml:space="preserve">
<g>
	<g>
		<path d="M316.444,272.808H14.545C6.525,272.808,0,279.333,0,287.354s6.525,14.545,14.545,14.545h26.496l17.954,26.932
			c0.899,1.349,2.413,2.159,4.034,2.159h204.929c1.621,0,3.135-0.81,4.034-2.159l17.956-26.932h26.496
			c8.02,0,14.545-6.525,14.545-14.545S324.464,272.808,316.444,272.808z M316.444,292.202h-29.106c-0.018,0-204.914,0-204.914,0
			c-2.678,0-4.849,2.171-4.849,4.848c0,2.678,2.171,4.849,4.849,4.849h195.87l-12.929,19.394H65.625l-12.929-19.394H63.03
			c2.678,0,4.849-2.171,4.849-4.849c0-2.678-2.171-4.848-4.849-4.848H43.666c-0.01,0-29.121,0-29.121,0
			c-2.674,0-4.849-2.175-4.849-4.849s2.175-4.848,4.849-4.848h301.899c2.674,0,4.848,2.175,4.848,4.848
			S319.118,292.202,316.444,292.202z"/>
	</g>
</g>
<g>
	<g>
		<circle cx="180.04" cy="238.869" r="4.848"/>
	</g>
</g>
<g>
	<g>
		<circle cx="209.131" cy="190.384" r="4.848"/>
	</g>
</g>
<g>
	<g>
		<circle cx="223.677" cy="214.626" r="4.848"/>
	</g>
</g>
<g>
	<g>
		<circle cx="112.162" cy="190.384" r="4.848"/>
	</g>
</g>
<g>
	<g>
		<path d="M223.677,166.384v-14.789c0-2.678-2.17-4.848-4.848-4.848H192.88c9.903-8.006,16.251-20.243,16.251-33.939
			c0-22.422-17.001-40.94-38.788-43.36V4.849c0-2.678-2.17-4.849-4.849-4.849c-2.678,0-4.848,2.171-4.848,4.849v64.599
			c-21.787,2.42-38.788,20.938-38.788,43.36c0,13.697,6.348,25.934,16.251,33.939h-25.948c-2.678,0-4.849,2.171-4.849,4.848v14.789
			c-24.466,2.44-43.636,23.143-43.636,48.242c0,26.735,21.75,48.485,48.485,48.485h106.667c26.734,0,48.485-21.75,48.485-48.485
			C267.313,189.528,248.143,168.825,223.677,166.384z M131.556,112.808c0-18.715,15.225-33.939,33.939-33.939
			c18.714,0,33.939,15.225,33.939,33.939c0,18.714-15.226,33.939-33.939,33.939C146.78,146.748,131.556,131.523,131.556,112.808z
			 M117.01,156.444h96.97v9.697h-96.97V156.444z M218.828,253.414H112.162c-21.388,0-38.788-17.4-38.788-38.788
			s17.4-38.788,38.788-38.788h106.667c21.388,0,38.788,17.4,38.788,38.788S240.216,253.414,218.828,253.414z"/>
	</g>
</g>
<g>
</g>
<g>
</g>
<g>
</g>
<g>
</g>
<g>
</g>
<g>
</g>
<g>
</g>
<g>
</g>
<g>
</g>
<g>
</g>
<g>
</g>
<g>
</g>
<g>
</g>
<g>
</g>
<g>
</g>
</svg>
